Coordinates
version=1
nRows=12
nColumns=24
inDegrees=yes

Units are S.I. units (second, meters, Newtons, ...)
Angles are in degrees.

endheader
time	pelvis_tilt	pelvis_list	pelvis_rotation	pelvis_tx	pelvis_ty	pelvis_tz	hip_flexion_r	hip_adduction_r	hip_rotation_r	knee_angle_r	ankle_angle_r	subtalar_angle_r	mtp_angle_r	hip_flexion_l	hip_adduction_l	hip_rotation_l	knee_angle_l	ankle_angle_l	subtalar_angle_l	mtp_angle_l	lumbar_extension	lumbar_bending	lumbar_rotation
      4.71500000	     -7.22950573	     -4.02066611	      2.22521518	     -1.49255744	      0.00256401	     -0.31590946	     10.37876488	      9.24007083	      6.96281886	    -12.05938084	      0.78833013	     -3.84153531	     12.00937136	     28.47423832	     -6.61114903	     -2.10547996	    -61.81367939	    -12.38831686	     -3.84681085	     24.05532529	      6.33686029	      3.75196971	      3.30900953
      4.72000000	     -7.27514829	     -3.84058724	      2.08091662	     -1.48794314	      0.00286066	     -0.31550042	      9.89396274	      9.07051151	      7.08545828	    -11.67131514	      0.97684367	     -3.69027647	     12.01789270	     29.01147022	     -6.35459513	     -2.22565976	    -61.12462831	    -11.90903748	     -3.88847468	     24.08503639	      6.33829241	      3.59453467	      3.59808060
      4.72500000	     -7.30276900	     -3.66918490	      1.89997608	     -1.48334821	      0.00312726	     -0.31506808	      9.39646576	      8.91182805	      7.21743025	    -11.29209352	      1.16481274	     -3.48888771	     12.06887397	     29.49926502	     -6.12721737	     -2.36761477	    -60.37376127	    -11.43228239	     -3.91732473	     24.10221666	      6.31328496	      3.45087211	      3.92998898
      4.73000000	     -7.28223414	     -3.51287754	      1.68977607	     -1.47877989	      0.00339720	     -0.31464685	      8.85558561	      8.76767534	      7.33767450	    -10.92182602	      1.35056491	     -3.22137299	     12.16881072	     29.90704508	     -5.93163976	     -2.52808827	    -59.56431848	    -10.94800110	     -3.95419884	     24.05341683	      6.22668305	      3.33803941	      4.28553301
      4.73500000	     -7.29306285	     -3.36247372	      1.52850249	     -1.47419603	      0.00356612	     -0.31430854	      8.34347791	      8.61919472	      7.43197496	    -10.53395894	      1.52618435	     -3.04622025	     12.27639008	     30.34440208	     -5.70904646	     -2.61803767	    -58.71043100	    -10.50469710	     -3.96761808	     23.99282157	      6.18545519	      3.22903484	      4.57955575
      4.74000000	     -7.27512665	     -3.22489847	      1.34944239	     -1.46963939	      0.00371197	     -0.31395957	      7.80990697	      8.48652330	      7.54430020	    -10.15914700	      1.68245397	     -2.86855820	     12.42105108	     30.72845897	     -5.50658852	     -2.69722558	    -57.80718780	    -10.06242003	     -3.97647560	     23.86685440	      6.10327606	      3.12886830	      4.92125831
      4.74500000	     -7.26757252	     -3.08951910	      1.17450472	     -1.46507483	      0.00379940	     -0.31364122	      7.29358479	      8.35545179	      7.66917705	     -9.79418000	      1.82141525	     -2.75461842	     12.55748479	     31.10271399	     -5.30466878	     -2.76336931	    -56.85102256	     -9.63290263	     -3.97181654	     23.70743899	      6.03760585	      3.03555865	      5.22810140
      4.75000000	     -7.33401107	     -2.98161554	      1.05511553	     -1.46054148	      0.00374477	     -0.31340797	      6.87614202	      8.24718195	      7.75843079	     -9.45626770	      1.94515774	     -2.71933010	     12.60291153	     31.56053934	     -5.08529312	     -2.71701906	    -55.85359250	     -9.27319338	     -3.97870916	     23.65200330	      6.05305374	      2.96089405	      5.46876869
      4.75500000	     -7.26147426	     -2.83536889	      0.79923760	     -1.45596675	      0.00382831	     -0.31301459	      6.30715352	      8.11927664	      8.00547292	     -9.13701946	      2.08270335	     -2.65370941	     12.70224454	     31.79118349	     -4.93312413	     -2.86494909	    -54.77878605	     -8.84694098	     -3.96493611	     23.37794663	      5.91176667	      2.86916985	      5.83763891
      4.76000000	     -7.22357246	     -2.71524040	      0.61366146	     -1.45141088	      0.00381039	     -0.31276239	      5.77896978	      8.00757051	      8.23034516	     -8.81608326	      2.19355949	     -2.70197101	     12.72981067	     32.06778154	     -4.75177177	     -2.89375440	    -53.68354327	     -8.44845385	     -3.92827169	     23.01800973	      5.81044898	      2.80213243	      6.15934318
      4.76500000	     -7.20315094	     -2.60101205	      0.41832199	     -1.44687063	      0.00372851	     -0.31249094	      5.29115909	      7.90855136	      8.48131795	     -8.53800745	      2.30231395	     -2.81072893	     12.68142050	     32.34031220	     -4.58543190	     -2.91396097	    -52.54257886	     -8.04889768	     -3.87758812	     22.62197361	      5.72255412	      2.73966593	      6.48319355
      4.77000000	     -7.18884331	     -2.49158591	      0.21578208	     -1.44234172	      0.00360864	     -0.31225131	      4.82107970	      7.81441269	      8.76654850	     -8.28463202	      2.41668035	     -2.95600233	     12.54980515	     32.59448890	     -4.42672509	     -2.92241246	    -51.35102878	     -7.67421368	     -3.81926988	     22.21096978	      5.64098674	      2.68736061	      6.79990584
